<svg width="100" height="100" viewBox="0 0 100 100" fill="none" xmlns="http://www.w3.org/2000/svg">
<rect width="100" height="100" fill="white"/>
<path d="M5.196 67.372V47.284H8.364V44.188H19.308V47.284H22.512V58.336H19.308V61.396H9.768V67.372H5.196ZM9.768 56.5H17.904V49.084H9.768V56.5ZM30.0554 61.396V58.336H26.8874V47.284H30.0554V44.188H40.9994V47.284H44.2034V58.336H40.9994V61.396H30.0554ZM31.4594 56.5H39.5954V49.084H31.4594V56.5ZM48.5788 61.396V44.188H59.5228V47.284H61.2868V44.188H69.0988V47.284H72.2308V61.396H67.6948V49.084H62.6908V61.396H58.1188V49.084H53.1508V61.396H48.5788ZM79.4499 61.396V58.336H76.2819V47.284H79.4499V44.188H90.3939V47.284H93.5979V58.336H90.3939V61.396H79.4499ZM80.8539 56.5H88.9899V49.084H80.8539V56.5Z" fill="black"/>
</svg>
